<svg xmlns="http://www.w3.org/2000/svg" viewBox="0 0 100 100" width="100" height="100"><defs><radialGradient id="moon" cx=".4" cy=".35" r=".75"><stop offset="0" stop-color="#fca5a5"/><stop offset=".55" stop-color="#dc2626"/><stop offset="1" stop-color="#7f1d1d"/></radialGradient></defs>
    <circle cx="50" cy="50" r="44" fill="url(#moon)"/>
    <circle cx="50" cy="50" r="34" fill="none" stroke="#450a0a" stroke-width="1.6"/><circle cx="50" cy="50" r="24" fill="none" stroke="#450a0a" stroke-width="1.6"/><circle cx="50" cy="50" r="14" fill="none" stroke="#450a0a" stroke-width="1.6"/>
    <g fill="#1c0505">
      <g transform="translate(79.0 50.0) rotate(90)"><circle r="3.2"/><path d="M0 -3.2 Q5 -3 5.5 3 Q3 0 0 3.2 Z"/></g><g transform="translate(35.5 75.1) rotate(210)"><circle r="3.2"/><path d="M0 -3.2 Q5 -3 5.5 3 Q3 0 0 3.2 Z"/></g><g transform="translate(35.5 24.9) rotate(330)"><circle r="3.2"/><path d="M0 -3.2 Q5 -3 5.5 3 Q3 0 0 3.2 Z"/></g><g transform="translate(65.7 60.7) rotate(124)"><circle r="3.2"/><path d="M0 -3.2 Q5 -3 5.5 3 Q3 0 0 3.2 Z"/></g><g transform="translate(32.9 58.2) rotate(244)"><circle r="3.2"/><path d="M0 -3.2 Q5 -3 5.5 3 Q3 0 0 3.2 Z"/></g><g transform="translate(51.5 31.1) rotate(364)"><circle r="3.2"/><path d="M0 -3.2 Q5 -3 5.5 3 Q3 0 0 3.2 Z"/></g>
    </g>
    <circle cx="50" cy="50" r="5" fill="#1c0505"/></svg>
