<svg xmlns="http://www.w3.org/2000/svg" viewBox="0 0 100 100" width="100" height="100">
    <ellipse cx="50" cy="58" rx="23" ry="27" fill="#fcd9b6"/>
    <path d="M27 62 Q50 55 73 62 L72 76 Q50 96 28 76 Z" fill="#1e293b"/>
    <path d="M56 55 q5 -3.5 10 0" stroke="#0f172a" stroke-width="3" fill="none" stroke-linecap="round"/>
    <path d="M22 42 L80 32 L82 46 L24 60 Z" fill="#1d4ed8"/>
    <path d="M36 40 L64 35 L66 46 L38 52 Z" fill="#cbd5e1" stroke="#475569" stroke-width="1"/>
    
  <g transform="translate(52 45) scale(0.6)">
    <path d="M2 0 a2 2 0 1 1 -2 -2 a5 5 0 1 1 -5 5 a8 8 0 0 1 8 -8 L10 -10" fill="none" stroke="#334155" stroke-width="2.4" stroke-linecap="round" stroke-linejoin="round"/>
  </g>
    <path d="M22 50 L16 22 L32 32 L32 10 L46 26 L54 6 L60 26 L74 10 L74 32 L88 22 L80 46 L76 36 Q50 26 24 42 Z" fill="#e2e8f0" stroke="#94a3b8" stroke-width="1"/></svg>
